<svg width="27" height="27" viewBox="0 0 27 27" fill="none" xmlns="http://www.w3.org/2000/svg">
<path d="M9.01695 22.3519H8.38195C3.30198 22.3519 0.761996 21.0819 0.761996 14.7319V8.38195C0.761996 3.30198 3.30198 0.761996 8.38195 0.761996H18.5419C23.6219 0.761996 26.1619 3.30198 26.1619 8.38195V14.7319C26.1619 19.8119 23.6219 22.3519 18.5419 22.3519H17.9069C17.5132 22.3519 17.1322 22.5424 16.8909 22.8599L14.9859 25.3999C14.1477 26.5175 12.7761 26.5175 11.9379 25.3999L10.0329 22.8599C9.82975 22.5805 9.35985 22.3519 9.01695 22.3519Z" stroke="#515151" stroke-width="1.5" stroke-miterlimit="10" stroke-linecap="round" stroke-linejoin="round"/>
<path d="M18.5374 12.1919H18.5488" stroke="#515151" stroke-width="1.5" stroke-linecap="round" stroke-linejoin="round"/>
<path d="M13.4562 12.1919H13.4676" stroke="#515151" stroke-width="1.5" stroke-linecap="round" stroke-linejoin="round"/>
<path d="M8.37498 12.1919H8.38638" stroke="#515151" stroke-width="1.5" stroke-linecap="round" stroke-linejoin="round"/>
</svg>
