<svg width="112" height="24" viewBox="0 0 112 24" fill="none" xmlns="http://www.w3.org/2000/svg">
<path d="M12.33 12.15L9.85999 14.62C8.48999 15.99 8.48999 18.2 9.85999 19.57C11.23 20.94 13.44 20.94 14.81 19.57L18.7 15.68C21.43 12.95 21.43 8.50998 18.7 5.77998C15.97 3.04998 11.53 3.04998 8.79999 5.77998L4.55999 10.02C2.21999 12.36 2.21999 16.16 4.55999 18.51" stroke="#171717" stroke-width="1.5" stroke-linecap="round" stroke-linejoin="round"/>
<path d="M58.99 17.5H60.5C63.52 17.5 66 15.03 66 12C66 8.98 63.53 6.5 60.5 6.5H58.99" stroke="#171717" stroke-width="1.5" stroke-linecap="round" stroke-linejoin="round"/>
<path d="M53 6.5H51.5C48.47 6.5 46 8.97 46 12C46 15.02 48.47 17.5 51.5 17.5H53" stroke="#171717" stroke-width="1.5" stroke-linecap="round" stroke-linejoin="round"/>
<path d="M52 12H60" stroke="#171717" stroke-width="1.5" stroke-linecap="round" stroke-linejoin="round"/>
<path d="M97 10C98.1046 10 99 9.10457 99 8C99 6.89543 98.1046 6 97 6C95.8954 6 95 6.89543 95 8C95 9.10457 95.8954 10 97 10Z" stroke="#171717" stroke-width="1.5" stroke-linecap="round" stroke-linejoin="round"/>
<path d="M101 2H97C92 2 90 4 90 9V15C90 20 92 22 97 22H103C108 22 110 20 110 15V10" stroke="#171717" stroke-width="1.5" stroke-linecap="round" stroke-linejoin="round"/>
<path d="M103.75 5H109.25" stroke="#171717" stroke-width="1.5" stroke-linecap="round"/>
<path d="M106.5 7.75V2.25" stroke="#171717" stroke-width="1.5" stroke-linecap="round"/>
<path d="M90.67 18.95L95.6 15.64C96.39 15.11 97.53 15.17 98.24 15.78L98.57 16.07C99.35 16.74 100.61 16.74 101.39 16.07L105.55 12.5C106.33 11.83 107.59 11.83 108.37 12.5L110 13.9" stroke="#171717" stroke-width="1.5" stroke-linecap="round" stroke-linejoin="round"/>
</svg>
