<svg width="36" height="36" viewBox="0 0 36 36" fill="none" xmlns="http://www.w3.org/2000/svg">
<path d="M16.2 28.8H19.8V25.2H16.2V28.8ZM18 0C15.6362 0 13.2955 0.465583 11.1117 1.37017C8.92783 2.27475 6.94352 3.60062 5.27207 5.27207C1.89642 8.64772 0 13.2261 0 18C0 22.7739 1.89642 27.3522 5.27207 30.7279C6.94352 32.3993 8.92783 33.7252 11.1117 34.6298C13.2955 35.5344 15.6362 36 18 36C22.7739 36 27.3522 34.1035 30.7279 30.7279C34.1035 27.3522 36 22.7739 36 18C36 15.6362 35.5344 13.2955 34.6298 11.1117C33.7252 8.92783 32.3993 6.94352 30.7279 5.27207C29.0564 3.60062 27.0721 2.27475 24.8883 1.37017C22.7044 0.465583 20.3638 0 18 0ZM18 32.4C10.062 32.4 3.6 25.938 3.6 18C3.6 10.062 10.062 3.6 18 3.6C25.938 3.6 32.4 10.062 32.4 18C32.4 25.938 25.938 32.4 18 32.4ZM18 7.19999C16.0904 7.19999 14.2591 7.95856 12.9088 9.30882C11.5586 10.6591 10.8 12.4904 10.8 14.4H14.4C14.4 13.4452 14.7793 12.5295 15.4544 11.8544C16.1295 11.1793 17.0452 10.8 18 10.8C18.9548 10.8 19.8704 11.1793 20.5456 11.8544C21.2207 12.5295 21.6 13.4452 21.6 14.4C21.6 18 16.2 17.55 16.2 23.4H19.8C19.8 19.35 25.2 18.9 25.2 14.4C25.2 12.4904 24.4414 10.6591 23.0911 9.30882C21.7409 7.95856 19.9095 7.19999 18 7.19999Z" fill="black"/>
</svg>
