<svg width="43" height="43" viewBox="0 0 43 43" fill="none" xmlns="http://www.w3.org/2000/svg">
<path d="M19.7083 32.25H23.2916V28.6667H19.7083V32.25ZM21.5 3.58337C19.1471 3.58337 16.8173 4.0468 14.6436 4.9472C12.4698 5.8476 10.4947 7.16733 8.83098 8.83104C5.47096 12.1911 3.58331 16.7482 3.58331 21.5C3.58331 26.2518 5.47096 30.809 8.83098 34.169C10.4947 35.8328 12.4698 37.1525 14.6436 38.0529C16.8173 38.9533 19.1471 39.4167 21.5 39.4167C26.2518 39.4167 30.8089 37.5291 34.169 34.169C37.529 30.809 39.4166 26.2518 39.4166 21.5C39.4166 19.1472 38.9532 16.8174 38.0528 14.6436C37.1524 12.4699 35.8327 10.4948 34.169 8.83104C32.5053 7.16733 30.5301 5.8476 28.3564 4.9472C26.1826 4.0468 23.8528 3.58337 21.5 3.58337ZM21.5 35.8334C13.5987 35.8334 7.16665 29.4013 7.16665 21.5C7.16665 13.5988 13.5987 7.16671 21.5 7.16671C29.4012 7.16671 35.8333 13.5988 35.8333 21.5C35.8333 29.4013 29.4012 35.8334 21.5 35.8334ZM21.5 10.75C19.5993 10.75 17.7764 11.5051 16.4324 12.8491C15.0884 14.1931 14.3333 16.016 14.3333 17.9167H17.9166C17.9166 16.9663 18.2942 16.0549 18.9662 15.3829C19.6382 14.7109 20.5496 14.3334 21.5 14.3334C22.4503 14.3334 23.3618 14.7109 24.0338 15.3829C24.7058 16.0549 25.0833 16.9663 25.0833 17.9167C25.0833 21.5 19.7083 21.0521 19.7083 26.875H23.2916C23.2916 22.8438 28.6666 22.3959 28.6666 17.9167C28.6666 16.016 27.9116 14.1931 26.5676 12.8491C25.2236 11.5051 23.4007 10.75 21.5 10.75Z" fill="black"/>
</svg>
