<svg width="27" height="26" viewBox="0 0 27 26" fill="none" xmlns="http://www.w3.org/2000/svg">
<path d="M13.4875 17.4871C10.8904 17.4871 8.78256 15.3793 8.78256 12.7821C8.78256 10.185 10.8904 8.07719 13.4875 8.07719C16.0846 8.07719 18.1924 10.185 18.1924 12.7821C18.1924 15.3793 16.0846 17.4871 13.4875 17.4871ZM13.4875 9.95916C11.9317 9.95916 10.6645 11.2264 10.6645 12.7821C10.6645 14.3379 11.9317 15.6051 13.4875 15.6051C15.0433 15.6051 16.3105 14.3379 16.3105 12.7821C16.3105 11.2264 15.0433 9.95916 13.4875 9.95916Z" fill="#515151"/>
<path d="M17.5149 25.567C17.2515 25.567 16.988 25.5294 16.7245 25.4666C15.9466 25.2534 15.2942 24.764 14.8802 24.074L14.7296 23.8231C13.9894 22.5433 12.9731 22.5433 12.2329 23.8231L12.0948 24.0614C11.6808 24.764 11.0284 25.2659 10.2505 25.4666C9.46007 25.6799 8.64455 25.567 7.95449 25.153L5.79649 23.9109C5.03115 23.4718 4.47911 22.7566 4.24072 21.8909C4.01488 21.0252 4.1278 20.1344 4.56693 19.369C4.93078 18.7292 5.03115 18.152 4.81786 17.7882C4.60457 17.4243 4.06507 17.211 3.32483 17.211C1.49304 17.211 0 15.718 0 13.8862V11.678C0 9.84624 1.49304 8.3532 3.32483 8.3532C4.06507 8.3532 4.60457 8.13991 4.81786 7.77606C5.03115 7.41221 4.94333 6.83507 4.56693 6.1952C4.1278 5.42986 4.01488 4.52651 4.24072 3.67335C4.46656 2.80764 5.01861 2.09249 5.79649 1.65336L7.96704 0.411258C9.38479 -0.429359 11.2542 0.0599552 12.1074 1.5028L12.2579 1.75373C12.9982 3.03348 14.0145 3.03348 14.7547 1.75373L14.8927 1.51535C15.7459 0.0599552 17.6153 -0.429359 19.0456 0.423804L21.2036 1.66591C21.9689 2.10504 22.521 2.82019 22.7594 3.6859C22.9852 4.55161 22.8723 5.44241 22.4332 6.20775C22.0693 6.84762 21.9689 7.42476 22.1822 7.78861C22.3955 8.15246 22.935 8.36575 23.6753 8.36575C25.5071 8.36575 27.0001 9.85878 27.0001 11.6906V13.8988C27.0001 15.7306 25.5071 17.2236 23.6753 17.2236C22.935 17.2236 22.3955 17.4369 22.1822 17.8007C21.9689 18.1646 22.0568 18.7417 22.4332 19.3816C22.8723 20.1469 22.9978 21.0503 22.7594 21.9034C22.5335 22.7691 21.9815 23.4843 21.2036 23.9234L19.0331 25.1655C18.5563 25.429 18.0419 25.567 17.5149 25.567ZM13.4875 20.9248C14.6041 20.9248 15.6455 21.6274 16.3607 22.8695L16.4987 23.1079C16.6492 23.3714 16.9002 23.5596 17.2013 23.6349C17.5024 23.7101 17.8035 23.6725 18.0544 23.5219L20.225 22.2673C20.5512 22.0791 20.8021 21.7654 20.9025 21.389C21.0029 21.0126 20.9527 20.6237 20.7645 20.2975C20.0493 19.0679 19.9615 17.8007 20.5136 16.8346C21.0656 15.8686 22.2073 15.3165 23.6376 15.3165C24.4406 15.3165 25.0805 14.6766 25.0805 13.8737V11.6655C25.0805 10.875 24.4406 10.2226 23.6376 10.2226C22.2073 10.2226 21.0656 9.67059 20.5136 8.7045C19.9615 7.73842 20.0493 6.47122 20.7645 5.24167C20.9527 4.91546 21.0029 4.52651 20.9025 4.15012C20.8021 3.77372 20.5637 3.47261 20.2375 3.27186L18.067 2.02976C17.5275 1.70355 16.8123 1.89175 16.4861 2.44379L16.3481 2.68218C15.633 3.92428 14.5916 4.62689 13.475 4.62689C12.3583 4.62689 11.317 3.92428 10.6018 2.68218L10.4638 2.43125C10.1501 1.90429 9.44753 1.7161 8.90802 2.02976L6.73748 3.28441C6.41127 3.47261 6.16034 3.78627 6.05997 4.16267C5.95959 4.53906 6.00978 4.928 6.19798 5.25421C6.91313 6.48377 7.00095 7.75097 6.44891 8.71705C5.89686 9.68313 4.75513 10.2352 3.32483 10.2352C2.52185 10.2352 1.88198 10.875 1.88198 11.678V13.8862C1.88198 14.6766 2.52185 15.3291 3.32483 15.3291C4.75513 15.3291 5.89686 15.8811 6.44891 16.8472C7.00095 17.8133 6.91313 19.0805 6.19798 20.31C6.00978 20.6362 5.95959 21.0252 6.05997 21.4016C6.16034 21.778 6.39872 22.0791 6.72493 22.2798L8.89548 23.5219C9.15896 23.685 9.47262 23.7227 9.76119 23.6474C10.0623 23.5721 10.3132 23.3714 10.4763 23.1079L10.6144 22.8695C11.3295 21.64 12.3709 20.9248 13.4875 20.9248Z" fill="#515151"/>
</svg>
