<svg width="377" height="76" viewBox="0 0 377 76" fill="none" xmlns="http://www.w3.org/2000/svg">
<line y1="7.5" x2="376.065" y2="7.5" stroke="black" stroke-width="3"/>
<circle cx="74" cy="8" r="8" fill="black"/>
<path d="M127.95 39.3333C118.75 39.3333 111.283 46.8 111.283 56C111.283 65.2 118.75 72.6667 127.95 72.6667C137.15 72.6667 144.617 65.2 144.617 56C144.617 46.8 137.167 39.3333 127.95 39.3333ZM132.95 59.7167L128.117 62.5C127.517 62.85 126.85 63.0167 126.2 63.0167C125.533 63.0167 124.883 62.85 124.283 62.5C123.083 61.8 122.367 60.5667 122.367 59.1667V53.5833C122.367 52.2 123.083 50.95 124.283 50.25C125.483 49.55 126.917 49.55 128.133 50.25L132.967 53.0333C134.167 53.7333 134.883 54.9667 134.883 56.3667C134.883 57.7667 134.167 59.0167 132.95 59.7167Z" fill="#171717"/>
<path d="M187.95 39.3333C178.75 39.3333 171.283 46.8 171.283 56C171.283 65.2 178.75 72.6667 187.95 72.6667C197.15 72.6667 204.617 65.2 204.617 56C204.617 46.8 197.167 39.3333 187.95 39.3333ZM185.867 61.05C185.867 61.85 185.533 62.1667 184.683 62.1667H182.517C181.667 62.1667 181.333 61.85 181.333 61.05V50.95C181.333 50.15 181.667 49.8333 182.517 49.8333H184.667C185.517 49.8333 185.85 50.15 185.85 50.95V61.05H185.867ZM194.667 61.05C194.667 61.85 194.333 62.1667 193.483 62.1667H191.333C190.483 62.1667 190.15 61.85 190.15 61.05V50.95C190.15 50.15 190.483 49.8333 191.333 49.8333H193.483C194.333 49.8333 194.667 50.15 194.667 50.95V61.05Z" fill="#171717"/>
<path d="M247.95 39.3333C238.75 39.3333 231.283 46.8 231.283 56C231.283 65.2 238.75 72.6667 247.95 72.6667C257.15 72.6667 264.617 65.2 264.617 56C264.617 46.8 257.167 39.3333 247.95 39.3333ZM255.05 58.05C255.05 60.8167 252.817 63.05 250.05 63.05H245.95C243.183 63.05 240.95 60.8167 240.95 58.05V53.95C240.95 51.1833 243.183 48.95 245.95 48.95H250.05C252.817 48.95 255.05 51.1833 255.05 53.95V58.05Z" fill="#171717"/>
</svg>
