<svg width="210" height="30" viewBox="0 0 210 30" fill="none" xmlns="http://www.w3.org/2000/svg">
<path d="M70 2.5V6.25" stroke="#515151" stroke-width="1.5" stroke-miterlimit="10" stroke-linecap="round" stroke-linejoin="round"/>
<path d="M80 2.5V6.25" stroke="#515151" stroke-width="1.5" stroke-miterlimit="10" stroke-linecap="round" stroke-linejoin="round"/>
<path d="M64.375 11.3625H85.625" stroke="#515151" stroke-width="1.5" stroke-miterlimit="10" stroke-linecap="round" stroke-linejoin="round"/>
<path d="M86.25 10.625V21.25C86.25 25 84.375 27.5 80 27.5H70C65.625 27.5 63.75 25 63.75 21.25V10.625C63.75 6.875 65.625 4.375 70 4.375H80C84.375 4.375 86.25 6.875 86.25 10.625Z" stroke="#515151" stroke-width="1.5" stroke-miterlimit="10" stroke-linecap="round" stroke-linejoin="round"/>
<path d="M79.6184 17.125H79.6296" stroke="#515151" stroke-width="1.5" stroke-linecap="round" stroke-linejoin="round"/>
<path d="M79.6184 20.875H79.6296" stroke="#515151" stroke-width="1.5" stroke-linecap="round" stroke-linejoin="round"/>
<path d="M74.9944 17.125H75.0056" stroke="#515151" stroke-width="1.5" stroke-linecap="round" stroke-linejoin="round"/>
<path d="M74.9944 20.875H75.0056" stroke="#515151" stroke-width="1.5" stroke-linecap="round" stroke-linejoin="round"/>
<path d="M70.3679 17.125H70.3791" stroke="#515151" stroke-width="1.5" stroke-linecap="round" stroke-linejoin="round"/>
<path d="M70.3679 20.875H70.3791" stroke="#515151" stroke-width="1.5" stroke-linecap="round" stroke-linejoin="round"/>
<path d="M195 19.6875C192.413 19.6875 190.312 17.5875 190.312 15C190.312 12.4125 192.413 10.3125 195 10.3125C197.588 10.3125 199.688 12.4125 199.688 15C199.688 17.5875 197.588 19.6875 195 19.6875ZM195 12.1875C193.45 12.1875 192.188 13.45 192.188 15C192.188 16.55 193.45 17.8125 195 17.8125C196.55 17.8125 197.812 16.55 197.812 15C197.812 13.45 196.55 12.1875 195 12.1875Z" fill="#515151"/>
<path d="M199.013 27.7375C198.75 27.7375 198.487 27.7 198.225 27.6375C197.45 27.425 196.8 26.9375 196.387 26.25L196.237 26C195.5 24.725 194.488 24.725 193.75 26L193.613 26.2375C193.2 26.9375 192.55 27.4375 191.775 27.6375C190.988 27.85 190.175 27.7375 189.488 27.325L187.337 26.0875C186.575 25.65 186.025 24.9375 185.788 24.075C185.562 23.2125 185.675 22.325 186.112 21.5625C186.475 20.925 186.575 20.35 186.363 19.9875C186.15 19.625 185.613 19.4125 184.875 19.4125C183.05 19.4125 181.562 17.925 181.562 16.1V13.9C181.562 12.075 183.05 10.5875 184.875 10.5875C185.613 10.5875 186.15 10.375 186.363 10.0125C186.575 9.64999 186.487 9.07499 186.112 8.43749C185.675 7.67499 185.562 6.77499 185.788 5.92499C186.013 5.06249 186.562 4.34999 187.337 3.91249L189.5 2.67499C190.912 1.83749 192.775 2.32499 193.625 3.76249L193.775 4.01249C194.513 5.28749 195.525 5.28749 196.263 4.01249L196.4 3.77499C197.25 2.32499 199.113 1.83749 200.538 2.68749L202.688 3.92499C203.45 4.36249 204 5.07499 204.237 5.93749C204.462 6.79999 204.35 7.68749 203.912 8.44999C203.55 9.08749 203.45 9.66249 203.663 10.025C203.875 10.3875 204.413 10.6 205.15 10.6C206.975 10.6 208.463 12.0875 208.463 13.9125V16.1125C208.463 17.9375 206.975 19.425 205.15 19.425C204.413 19.425 203.875 19.6375 203.663 20C203.45 20.3625 203.537 20.9375 203.912 21.575C204.35 22.3375 204.475 23.2375 204.237 24.0875C204.012 24.95 203.462 25.6625 202.688 26.1L200.525 27.3375C200.05 27.6 199.538 27.7375 199.013 27.7375ZM195 23.1125C196.113 23.1125 197.15 23.8125 197.862 25.05L198 25.2875C198.15 25.55 198.4 25.7375 198.7 25.8125C199 25.8875 199.3 25.85 199.55 25.7L201.713 24.45C202.038 24.2625 202.288 23.95 202.388 23.575C202.487 23.2 202.438 22.8125 202.25 22.4875C201.537 21.2625 201.45 20 202 19.0375C202.55 18.075 203.688 17.525 205.112 17.525C205.913 17.525 206.55 16.8875 206.55 16.0875V13.8875C206.55 13.1 205.913 12.45 205.112 12.45C203.688 12.45 202.55 11.9 202 10.9375C201.45 9.97499 201.537 8.71249 202.25 7.48749C202.438 7.16249 202.487 6.77499 202.388 6.39999C202.288 6.02499 202.05 5.72499 201.725 5.52499L199.562 4.28749C199.025 3.96249 198.312 4.14999 197.988 4.69999L197.85 4.93749C197.137 6.17499 196.1 6.87499 194.987 6.87499C193.875 6.87499 192.837 6.17499 192.125 4.93749L191.988 4.68749C191.675 4.16249 190.975 3.97499 190.438 4.28749L188.275 5.53749C187.95 5.72499 187.7 6.03749 187.6 6.41249C187.5 6.78749 187.55 7.17499 187.738 7.49999C188.45 8.72499 188.537 9.98749 187.987 10.95C187.438 11.9125 186.3 12.4625 184.875 12.4625C184.075 12.4625 183.438 13.1 183.438 13.9V16.1C183.438 16.8875 184.075 17.5375 184.875 17.5375C186.3 17.5375 187.438 18.0875 187.987 19.05C188.537 20.0125 188.45 21.275 187.738 22.5C187.55 22.825 187.5 23.2125 187.6 23.5875C187.7 23.9625 187.938 24.2625 188.263 24.4625L190.425 25.7C190.688 25.8625 191 25.9 191.287 25.825C191.587 25.75 191.838 25.55 192 25.2875L192.137 25.05C192.85 23.825 193.887 23.1125 195 23.1125Z" fill="#515151"/>
<path d="M11.25 27.5H18.75C25 27.5 27.5 25 27.5 18.75V11.25C27.5 5 25 2.5 18.75 2.5H11.25C5 2.5 2.5 5 2.5 11.25V18.75C2.5 25 5 27.5 11.25 27.5Z" stroke="#515151" stroke-width="1.5" stroke-linecap="round" stroke-linejoin="round"/>
<path d="M21.25 3.04999V15.525C21.25 17.9875 19.4875 18.95 17.325 17.65L15.675 16.6625C15.3 16.4375 14.7 16.4375 14.325 16.6625L12.675 17.65C10.5125 18.9375 8.75 17.9875 8.75 15.525V3.04999" stroke="#515151" stroke-width="1.5" stroke-linecap="round" stroke-linejoin="round"/>
<path d="M11.25 27.5H18.75C25 27.5 27.5 25 27.5 18.75V11.25C27.5 5 25 2.5 18.75 2.5H11.25C5 2.5 2.5 5 2.5 11.25V18.75C2.5 25 5 27.5 11.25 27.5Z" stroke="#515151" stroke-width="1.5" stroke-linecap="round" stroke-linejoin="round"/>
<path d="M21.25 3.04999V15.525C21.25 17.9875 19.4875 18.95 17.325 17.65L15.675 16.6625C15.3 16.4375 14.7 16.4375 14.325 16.6625L12.675 17.65C10.5125 18.9375 8.75 17.9875 8.75 15.525V3.04999" stroke="#515151" stroke-width="1.5" stroke-linecap="round" stroke-linejoin="round"/>
<path d="M130.625 23.75H130C125 23.75 122.5 22.5 122.5 16.25V10C122.5 5 125 2.5 130 2.5H140C145 2.5 147.5 5 147.5 10V16.25C147.5 21.25 145 23.75 140 23.75H139.375C138.987 23.75 138.612 23.9375 138.375 24.25L136.5 26.75C135.675 27.85 134.325 27.85 133.5 26.75L131.625 24.25C131.425 23.975 130.963 23.75 130.625 23.75Z" stroke="#515151" stroke-width="1.5" stroke-miterlimit="10" stroke-linecap="round" stroke-linejoin="round"/>
<path d="M139.996 13.75H140.007" stroke="#515151" stroke-width="1.5" stroke-linecap="round" stroke-linejoin="round"/>
<path d="M134.994 13.75H135.006" stroke="#515151" stroke-width="1.5" stroke-linecap="round" stroke-linejoin="round"/>
<path d="M129.993 13.75H130.004" stroke="#515151" stroke-width="1.5" stroke-linecap="round" stroke-linejoin="round"/>
</svg>
