<svg width="33" height="33" viewBox="0 0 33 33" fill="none" xmlns="http://www.w3.org/2000/svg">
<path d="M16.5 26.8125C22.1954 26.8125 26.8125 22.1954 26.8125 16.5C26.8125 10.8046 22.1954 6.1875 16.5 6.1875C10.8046 6.1875 6.1875 10.8046 6.1875 16.5C6.1875 22.1954 10.8046 26.8125 16.5 26.8125Z" fill="black"/>
<path d="M16.5 30.9375C13.6445 30.9375 10.8532 30.0908 8.47896 28.5044C6.10473 26.9179 4.25424 24.6631 3.1615 22.025C2.06876 19.3869 1.78284 16.484 2.33992 13.6834C2.89699 10.8828 4.27203 8.31027 6.29115 6.29115C8.31027 4.27203 10.8828 2.89699 13.6834 2.33992C16.484 1.78284 19.3869 2.06876 22.025 3.1615C24.6631 4.25424 26.9179 6.10473 28.5044 8.47896C30.0908 10.8532 30.9375 13.6445 30.9375 16.5C30.9331 20.3277 29.4107 23.9974 26.704 26.704C23.9974 29.4107 20.3277 30.9331 16.5 30.9375ZM16.5 4.12501C14.0525 4.12501 11.6599 4.85079 9.62483 6.21057C7.58977 7.57035 6.00363 9.50306 5.067 11.7643C4.13036 14.0255 3.8853 16.5137 4.36279 18.9142C4.84028 21.3148 6.01889 23.5198 7.74956 25.2505C9.48024 26.9811 11.6853 28.1597 14.0858 28.6372C16.4863 29.1147 18.9745 28.8697 21.2357 27.933C23.497 26.9964 25.4297 25.4102 26.7894 23.3752C28.1492 21.3401 28.875 18.9476 28.875 16.5C28.8712 13.2191 27.5662 10.0737 25.2462 7.75378C22.9263 5.43385 19.7809 4.12883 16.5 4.12501Z" fill="black"/>
</svg>
