<svg width="353" height="42" viewBox="0 0 353 42" fill="none" xmlns="http://www.w3.org/2000/svg">
<rect x="167.128" width="93" height="42" fill="#FFFDFD"/>
<rect x="167.628" y="0.5" width="92" height="41" stroke="black" stroke-opacity="0.5"/>
<path d="M199.568 29V15.296L195.536 17.984L194.648 16.52L199.688 13.16H201.488V29H199.568ZM207.214 29V27.368L211.774 22.592C212.43 21.904 212.998 21.288 213.478 20.744C213.958 20.184 214.326 19.64 214.582 19.112C214.838 18.568 214.966 17.992 214.966 17.384C214.966 16.344 214.678 15.632 214.102 15.248C213.542 14.848 212.694 14.648 211.558 14.648C211.142 14.648 210.678 14.68 210.166 14.744C209.654 14.792 209.158 14.856 208.678 14.936C208.214 15 207.814 15.072 207.478 15.152L207.334 13.568C207.67 13.472 208.086 13.376 208.582 13.28C209.078 13.184 209.614 13.104 210.19 13.04C210.782 12.96 211.358 12.92 211.918 12.92C213.598 12.92 214.854 13.256 215.686 13.928C216.534 14.6 216.958 15.68 216.958 17.168C216.958 17.952 216.83 18.656 216.574 19.28C216.334 19.904 215.966 20.52 215.47 21.128C214.99 21.72 214.374 22.384 213.622 23.12L209.47 27.32H217.342V29H207.214ZM225.707 29.24C224.795 29.24 223.979 29.112 223.259 28.856C222.555 28.6 221.947 28.176 221.435 27.584C220.939 26.976 220.555 26.16 220.283 25.136C220.027 24.112 219.899 22.84 219.899 21.32C219.899 19.704 220.027 18.352 220.283 17.264C220.539 16.176 220.915 15.312 221.411 14.672C221.923 14.032 222.531 13.576 223.235 13.304C223.955 13.032 224.771 12.896 225.683 12.896C226.627 12.896 227.459 13.032 228.179 13.304C228.899 13.576 229.499 14.032 229.979 14.672C230.475 15.312 230.851 16.176 231.107 17.264C231.363 18.336 231.491 19.688 231.491 21.32C231.491 23.336 231.259 24.92 230.795 26.072C230.331 27.224 229.667 28.04 228.803 28.52C227.955 29 226.923 29.24 225.707 29.24ZM225.707 27.536C226.331 27.536 226.875 27.44 227.339 27.248C227.819 27.056 228.219 26.728 228.539 26.264C228.859 25.8 229.099 25.168 229.259 24.368C229.419 23.552 229.499 22.536 229.499 21.32C229.499 19.992 229.419 18.896 229.259 18.032C229.115 17.168 228.883 16.488 228.563 15.992C228.259 15.48 227.867 15.12 227.387 14.912C226.923 14.704 226.363 14.6 225.707 14.6C225.067 14.6 224.507 14.704 224.027 14.912C223.547 15.12 223.147 15.472 222.827 15.968C222.523 16.464 222.291 17.152 222.131 18.032C221.971 18.896 221.891 20 221.891 21.344C221.891 22.56 221.971 23.576 222.131 24.392C222.307 25.192 222.555 25.824 222.875 26.288C223.211 26.736 223.611 27.056 224.075 27.248C224.555 27.44 225.099 27.536 225.707 27.536Z" fill="black"/>
<path d="M285.856 29V17H287.704V17.84C288.088 17.616 288.608 17.384 289.264 17.144C289.92 16.888 290.552 16.76 291.16 16.76C291.96 16.76 292.6 16.856 293.08 17.048C293.576 17.24 293.976 17.552 294.28 17.984C294.6 17.808 294.992 17.624 295.456 17.432C295.92 17.24 296.416 17.08 296.944 16.952C297.488 16.824 298.016 16.76 298.528 16.76C299.616 16.76 300.448 16.952 301.024 17.336C301.616 17.704 302.024 18.32 302.248 19.184C302.472 20.048 302.584 21.2 302.584 22.64V29H300.736V22.712C300.736 21.672 300.672 20.84 300.544 20.216C300.432 19.592 300.2 19.144 299.848 18.872C299.496 18.584 298.96 18.44 298.24 18.44C297.6 18.44 296.968 18.536 296.344 18.728C295.736 18.92 295.264 19.112 294.928 19.304C295.04 19.72 295.112 20.24 295.144 20.864C295.192 21.472 295.216 22.104 295.216 22.76V29H293.368V22.808C293.368 21.72 293.312 20.864 293.2 20.24C293.088 19.6 292.848 19.144 292.48 18.872C292.128 18.584 291.592 18.44 290.872 18.44C290.264 18.44 289.664 18.536 289.072 18.728C288.48 18.92 288.024 19.112 287.704 19.304V29H285.856ZM305.918 29V17H307.766V17.84C308.15 17.616 308.67 17.384 309.326 17.144C309.982 16.888 310.614 16.76 311.222 16.76C312.022 16.76 312.662 16.856 313.142 17.048C313.638 17.24 314.038 17.552 314.342 17.984C314.662 17.808 315.054 17.624 315.518 17.432C315.982 17.24 316.478 17.08 317.006 16.952C317.55 16.824 318.078 16.76 318.59 16.76C319.678 16.76 320.51 16.952 321.086 17.336C321.678 17.704 322.086 18.32 322.31 19.184C322.534 20.048 322.646 21.2 322.646 22.64V29H320.798V22.712C320.798 21.672 320.734 20.84 320.606 20.216C320.494 19.592 320.262 19.144 319.91 18.872C319.558 18.584 319.022 18.44 318.302 18.44C317.662 18.44 317.03 18.536 316.406 18.728C315.798 18.92 315.326 19.112 314.99 19.304C315.102 19.72 315.174 20.24 315.206 20.864C315.254 21.472 315.278 22.104 315.278 22.76V29H313.43V22.808C313.43 21.72 313.374 20.864 313.262 20.24C313.15 19.6 312.91 19.144 312.542 18.872C312.19 18.584 311.654 18.44 310.934 18.44C310.326 18.44 309.726 18.536 309.134 18.728C308.542 18.92 308.086 19.112 307.766 19.304V29H305.918ZM326.269 29V12.416H328.189V19.808H336.517V12.416H338.437V29H336.517V21.512H328.189V29H326.269ZM346.808 34.64C345.56 34.64 344.552 34.528 343.784 34.304C343.032 34.096 342.48 33.728 342.128 33.2C341.792 32.672 341.624 31.952 341.624 31.04C341.624 30.576 341.696 30.176 341.84 29.84C341.984 29.52 342.192 29.224 342.464 28.952C342.752 28.664 343.104 28.368 343.52 28.064C343.312 27.904 343.144 27.68 343.016 27.392C342.904 27.088 342.848 26.752 342.848 26.384C342.848 26.208 342.936 25.928 343.112 25.544C343.304 25.144 343.488 24.792 343.664 24.488C343.328 24.328 343.016 24.112 342.728 23.84C342.456 23.552 342.232 23.168 342.056 22.688C341.88 22.208 341.792 21.6 341.792 20.864C341.792 19.392 342.208 18.344 343.04 17.72C343.872 17.08 344.952 16.76 346.28 16.76C346.712 16.76 347.168 16.792 347.648 16.856C348.128 16.92 348.504 16.992 348.776 17.072L352.352 16.976V18.56L350.096 18.512C350.32 18.736 350.504 19.032 350.648 19.4C350.808 19.768 350.888 20.256 350.888 20.864C350.888 21.904 350.712 22.72 350.36 23.312C350.008 23.904 349.488 24.32 348.8 24.56C348.112 24.8 347.248 24.92 346.208 24.92C346.096 24.92 345.904 24.912 345.632 24.896C345.376 24.864 345.184 24.84 345.056 24.824C344.96 25.048 344.864 25.304 344.768 25.592C344.672 25.88 344.624 26.08 344.624 26.192C344.624 26.496 344.68 26.728 344.792 26.888C344.904 27.048 345.16 27.152 345.56 27.2C345.976 27.248 346.624 27.272 347.504 27.272C348.656 27.272 349.576 27.368 350.264 27.56C350.952 27.752 351.44 28.104 351.728 28.616C352.032 29.112 352.184 29.84 352.184 30.8C352.184 32.16 351.712 33.136 350.768 33.728C349.824 34.336 348.504 34.64 346.808 34.64ZM346.832 33.056C348.016 33.056 348.888 32.888 349.448 32.552C350.008 32.216 350.288 31.664 350.288 30.896C350.288 30.304 350.192 29.864 350 29.576C349.824 29.304 349.52 29.12 349.088 29.024C348.656 28.944 348.08 28.904 347.36 28.904C347.216 28.904 347.016 28.904 346.76 28.904C346.504 28.888 346.24 28.88 345.968 28.88C345.696 28.864 345.448 28.848 345.224 28.832C345.016 28.816 344.872 28.808 344.792 28.808C344.296 29.16 343.952 29.472 343.76 29.744C343.568 30.032 343.472 30.408 343.472 30.872C343.472 31.4 343.568 31.824 343.76 32.144C343.952 32.464 344.288 32.696 344.768 32.84C345.264 32.984 345.952 33.056 346.832 33.056ZM346.28 23.432C347.272 23.432 347.976 23.24 348.392 22.856C348.808 22.456 349.016 21.792 349.016 20.864C349.016 19.936 348.808 19.272 348.392 18.872C347.976 18.472 347.272 18.272 346.28 18.272C345.352 18.272 344.68 18.472 344.264 18.872C343.864 19.272 343.664 19.936 343.664 20.864C343.664 21.792 343.864 22.456 344.264 22.856C344.68 23.24 345.352 23.432 346.28 23.432Z" fill="black"/>
<path d="M-9.23872e-06 29V12.464H6.02399C7.25599 12.464 8.27999 12.656 9.09599 13.04C9.92799 13.424 10.584 13.968 11.064 14.672C11.544 15.376 11.88 16.224 12.072 17.216C12.28 18.192 12.384 19.28 12.384 20.48C12.384 21.696 12.288 22.824 12.096 23.864C11.904 24.888 11.568 25.792 11.088 26.576C10.608 27.344 9.95999 27.944 9.14399 28.376C8.32799 28.792 7.29599 29 6.04799 29H-9.23872e-06ZM2.30399 27.008H5.99999C6.83199 27.008 7.50399 26.832 8.01599 26.48C8.54399 26.128 8.95199 25.648 9.23999 25.04C9.52799 24.432 9.72799 23.744 9.83999 22.976C9.95199 22.192 10.008 21.36 10.008 20.48C10.008 19.616 9.95199 18.824 9.83999 18.104C9.72799 17.368 9.52799 16.728 9.23999 16.184C8.95199 15.64 8.54399 15.224 8.01599 14.936C7.50399 14.632 6.83199 14.48 5.99999 14.48H2.30399V27.008ZM15.2047 29V16.976H17.4367V29H15.2047ZM15.2047 14.552V12.224H17.4367V14.552H15.2047ZM23.4022 29.24C22.2662 29.24 21.4022 28.928 20.8102 28.304C20.2182 27.68 19.9222 26.76 19.9222 25.544C19.9222 24.728 20.0662 24.072 20.3542 23.576C20.6422 23.064 21.0662 22.68 21.6262 22.424C22.2022 22.168 22.9142 22.016 23.7622 21.968L27.2422 21.632V20.696C27.2422 19.944 27.0742 19.416 26.7382 19.112C26.4022 18.792 25.8982 18.632 25.2262 18.632C24.8102 18.632 24.3222 18.648 23.7622 18.68C23.2022 18.712 22.6502 18.752 22.1062 18.8C21.5622 18.848 21.0742 18.896 20.6422 18.944L20.5462 17.312C20.9462 17.216 21.4182 17.128 21.9622 17.048C22.5222 16.968 23.1062 16.896 23.7142 16.832C24.3222 16.768 24.8822 16.736 25.3942 16.736C26.3382 16.736 27.1142 16.872 27.7222 17.144C28.3302 17.416 28.7782 17.84 29.0662 18.416C29.3542 18.992 29.4982 19.736 29.4982 20.648V26.552C29.5302 26.872 29.6582 27.112 29.8822 27.272C30.1222 27.416 30.4182 27.512 30.7702 27.56L30.6982 29.216C30.3462 29.216 30.0102 29.2 29.6902 29.168C29.3862 29.152 29.1062 29.104 28.8502 29.024C28.5942 28.96 28.3622 28.872 28.1542 28.76C27.9622 28.632 27.7782 28.488 27.6022 28.328C27.3142 28.456 26.9382 28.592 26.4742 28.736C26.0102 28.88 25.5142 29 24.9862 29.096C24.4582 29.192 23.9302 29.24 23.4022 29.24ZM23.8582 27.464C24.2582 27.464 24.6662 27.424 25.0822 27.344C25.5142 27.264 25.9222 27.176 26.3062 27.08C26.6902 26.968 27.0022 26.872 27.2422 26.792V23.192L24.0502 23.504C23.3782 23.552 22.8982 23.744 22.6102 24.08C22.3222 24.4 22.1782 24.864 22.1782 25.472C22.1782 26.096 22.3142 26.584 22.5862 26.936C22.8742 27.288 23.2982 27.464 23.8582 27.464ZM36.7417 29.24C36.3257 29.24 35.8457 29.216 35.3017 29.168C34.7737 29.12 34.2457 29.064 33.7177 29C33.2057 28.92 32.7577 28.84 32.3737 28.76L32.4697 26.96C32.8697 27.008 33.3257 27.064 33.8377 27.128C34.3497 27.192 34.8457 27.248 35.3257 27.296C35.8217 27.328 36.2137 27.344 36.5017 27.344C37.1097 27.344 37.6137 27.288 38.0137 27.176C38.4137 27.064 38.7177 26.88 38.9257 26.624C39.1337 26.352 39.2377 25.984 39.2377 25.52C39.2377 25.152 39.1577 24.872 38.9977 24.68C38.8377 24.472 38.5417 24.304 38.1097 24.176C37.6777 24.032 37.0457 23.896 36.2137 23.768C35.3177 23.624 34.5737 23.448 33.9817 23.24C33.3897 23.016 32.9497 22.68 32.6617 22.232C32.3737 21.784 32.2297 21.16 32.2297 20.36C32.2297 19.432 32.4377 18.712 32.8537 18.2C33.2857 17.672 33.8377 17.296 34.5097 17.072C35.1977 16.848 35.9177 16.736 36.6697 16.736C37.1497 16.736 37.6617 16.76 38.2057 16.808C38.7657 16.856 39.3017 16.92 39.8137 17C40.3257 17.08 40.7657 17.152 41.1337 17.216L41.0617 19.04C40.6777 18.976 40.2297 18.92 39.7177 18.872C39.2057 18.808 38.6937 18.76 38.1817 18.728C37.6697 18.696 37.2217 18.68 36.8377 18.68C36.3897 18.68 35.9817 18.728 35.6137 18.824C35.2617 18.904 34.9817 19.064 34.7737 19.304C34.5817 19.528 34.4857 19.856 34.4857 20.288C34.4857 20.608 34.5577 20.864 34.7017 21.056C34.8457 21.248 35.1337 21.416 35.5657 21.56C35.9977 21.688 36.6137 21.816 37.4137 21.944C38.4057 22.104 39.1977 22.304 39.7897 22.544C40.3817 22.784 40.8137 23.128 41.0857 23.576C41.3577 24.024 41.4937 24.64 41.4937 25.424C41.4937 26.848 41.0697 27.84 40.2217 28.4C39.3897 28.96 38.2297 29.24 36.7417 29.24ZM48.0883 29.264C47.2403 29.264 46.5603 29.136 46.0483 28.88C45.5523 28.624 45.1923 28.184 44.9683 27.56C44.7603 26.92 44.6563 26.024 44.6563 24.872V18.872H43.0243V16.976H44.6563V13.448H46.8643V16.976H50.4403V18.872H46.8643V24.248C46.8643 25.032 46.8963 25.648 46.9603 26.096C47.0403 26.528 47.1923 26.832 47.4163 27.008C47.6403 27.184 47.9923 27.272 48.4723 27.272C48.6323 27.272 48.8323 27.272 49.0723 27.272C49.3123 27.256 49.5603 27.24 49.8163 27.224C50.0723 27.192 50.2963 27.168 50.4883 27.152L50.6083 28.976C50.2403 29.04 49.8083 29.104 49.3123 29.168C48.8163 29.232 48.4083 29.264 48.0883 29.264ZM57.2932 29.24C55.9492 29.24 54.8932 29.016 54.1252 28.568C53.3572 28.104 52.8132 27.4 52.4932 26.456C52.1732 25.512 52.0132 24.312 52.0132 22.856C52.0132 21.464 52.1812 20.32 52.5172 19.424C52.8692 18.528 53.4292 17.856 54.1972 17.408C54.9812 16.96 56.0132 16.736 57.2932 16.736C58.5892 16.736 59.6212 16.96 60.3892 17.408C61.1572 17.856 61.7092 18.528 62.0452 19.424C62.3972 20.32 62.5732 21.464 62.5732 22.856C62.5732 24.312 62.4132 25.512 62.0932 26.456C61.7892 27.4 61.2532 28.104 60.4852 28.568C59.7172 29.016 58.6532 29.24 57.2932 29.24ZM57.2932 27.344C58.1412 27.344 58.7812 27.192 59.2132 26.888C59.6452 26.584 59.9332 26.104 60.0772 25.448C60.2212 24.776 60.2932 23.912 60.2932 22.856C60.2932 21.816 60.2052 20.992 60.0292 20.384C59.8532 19.76 59.5492 19.312 59.1172 19.04C58.6852 18.768 58.0772 18.632 57.2932 18.632C56.5252 18.632 55.9172 18.768 55.4692 19.04C55.0372 19.312 54.7332 19.76 54.5572 20.384C54.3812 20.992 54.2932 21.816 54.2932 22.856C54.2932 23.912 54.3652 24.776 54.5092 25.448C54.6532 26.104 54.9332 26.584 55.3492 26.888C55.7812 27.192 56.4292 27.344 57.2932 27.344ZM65.4581 29V11.864H67.6661V29H65.4581ZM71.0329 29V16.976H73.2649V29H71.0329ZM71.0329 14.552V12.224H73.2649V14.552H71.0329ZM81.0544 29.24C79.7584 29.24 78.7424 29.032 78.0064 28.616C77.2704 28.184 76.7504 27.496 76.4464 26.552C76.1424 25.608 75.9904 24.368 75.9904 22.832C75.9904 21.344 76.1584 20.16 76.4944 19.28C76.8304 18.384 77.3744 17.736 78.1264 17.336C78.8784 16.936 79.8624 16.736 81.0784 16.736C81.3664 16.736 81.7104 16.76 82.1104 16.808C82.5264 16.84 82.9424 16.888 83.3584 16.952C83.7904 17.016 84.1584 17.072 84.4624 17.12L84.3904 18.944C84.1184 18.912 83.7984 18.88 83.4304 18.848C83.0624 18.816 82.7104 18.792 82.3744 18.776C82.0384 18.744 81.7584 18.728 81.5344 18.728C80.6704 18.728 79.9984 18.864 79.5184 19.136C79.0544 19.408 78.7264 19.84 78.5344 20.432C78.3584 21.024 78.2704 21.824 78.2704 22.832C78.2704 23.92 78.3504 24.792 78.5104 25.448C78.6864 26.088 79.0064 26.552 79.4704 26.84C79.9344 27.112 80.6224 27.248 81.5344 27.248C81.7584 27.248 82.0384 27.24 82.3744 27.224C82.7264 27.192 83.0864 27.16 83.4544 27.128C83.8384 27.096 84.1664 27.072 84.4384 27.056L84.5104 28.88C84.1904 28.928 83.8144 28.976 83.3824 29.024C82.9664 29.088 82.5504 29.136 82.1344 29.168C81.7184 29.216 81.3584 29.24 81.0544 29.24ZM92.5312 29V12.464H98.7232C99.8112 12.464 100.723 12.608 101.459 12.896C102.211 13.184 102.779 13.64 103.163 14.264C103.563 14.872 103.763 15.672 103.763 16.664C103.763 17.368 103.683 17.96 103.523 18.44C103.363 18.92 103.131 19.328 102.827 19.664C102.539 19.984 102.171 20.256 101.723 20.48C102.203 20.656 102.635 20.896 103.019 21.2C103.403 21.488 103.699 21.888 103.907 22.4C104.131 22.912 104.243 23.56 104.243 24.344C104.243 25.224 104.115 25.968 103.859 26.576C103.619 27.168 103.267 27.64 102.803 27.992C102.339 28.344 101.779 28.6 101.123 28.76C100.483 28.92 99.7712 29 98.9872 29H92.5312ZM94.8352 27.104H98.8672C99.5072 27.104 100.051 27.024 100.499 26.864C100.963 26.688 101.323 26.4 101.579 26C101.835 25.584 101.963 25 101.963 24.248C101.963 23.656 101.851 23.184 101.627 22.832C101.419 22.464 101.147 22.192 100.811 22.016C100.491 21.824 100.147 21.696 99.7792 21.632C99.4272 21.568 99.0912 21.536 98.7712 21.536H94.8352V27.104ZM94.8352 19.664H98.7472C99.7232 19.664 100.419 19.44 100.835 18.992C101.267 18.528 101.483 17.832 101.483 16.904C101.483 16.024 101.243 15.384 100.763 14.984C100.299 14.568 99.5792 14.36 98.6032 14.36H94.8352V19.664ZM107.273 29V12.464H113.369C114.633 12.464 115.673 12.664 116.489 13.064C117.305 13.448 117.913 14.04 118.313 14.84C118.713 15.64 118.913 16.672 118.913 17.936C118.913 19.184 118.713 20.232 118.313 21.08C117.913 21.928 117.305 22.568 116.489 23C115.673 23.432 114.633 23.648 113.369 23.648H109.577V29H107.273ZM109.577 21.704H113.345C114.481 21.704 115.297 21.384 115.793 20.744C116.305 20.088 116.561 19.152 116.561 17.936C116.561 16.72 116.305 15.832 115.793 15.272C115.297 14.712 114.481 14.432 113.345 14.432H109.577V21.704ZM126.413 21.464V18.44H128.813V21.464H126.413ZM126.413 29V25.976H128.813V29H126.413Z" fill="black"/>
</svg>
