<svg width="60" height="60" viewBox="0 0 60 60" fill="none" xmlns="http://www.w3.org/2000/svg">
<path d="M30.3511 32.2813C30.1463 32.2521 29.8831 32.2521 29.6491 32.2813C24.5015 32.1058 20.4068 27.8941 20.4068 22.7172C20.4068 17.4234 24.677 13.1239 30.0001 13.1239C35.2939 13.1239 39.5934 17.4234 39.5934 22.7172C39.5641 27.8941 35.4987 32.1058 30.3511 32.2813Z" stroke="#171717" stroke-width="1.5" stroke-linecap="round" stroke-linejoin="round"/>
<path d="M49.7131 51.5849C44.507 56.3523 37.6045 59.2479 30.0001 59.2479C22.3956 59.2479 15.4931 56.3523 10.287 51.5849C10.5795 48.8356 12.3343 46.1448 15.4639 44.0389C23.4778 38.7158 36.5808 38.7158 44.5363 44.0389C47.6658 46.1448 49.4207 48.8356 49.7131 51.5849Z" stroke="#171717" stroke-width="1.5" stroke-linecap="round" stroke-linejoin="round"/>
<path d="M30 59.2479C46.1531 59.2479 59.2479 46.1531 59.2479 30C59.2479 13.8468 46.1531 0.752089 30 0.752089C13.8468 0.752089 0.752089 13.8468 0.752089 30C0.752089 46.1531 13.8468 59.2479 30 59.2479Z" stroke="#171717" stroke-width="1.5" stroke-linecap="round" stroke-linejoin="round"/>
</svg>
