<svg width="24" height="108" viewBox="0 0 24 108" fill="none" xmlns="http://www.w3.org/2000/svg">
<path d="M3 8.17994V15.8299C3 16.4799 3.46 17.2599 4.03 17.5799L11.03 21.4699C11.56 21.7699 12.44 21.7699 12.97 21.4699L19.97 17.5799C20.54 17.2699 21 16.4799 21 15.8299V8.17994C21 7.52994 20.54 6.74994 19.97 6.42994L12.97 2.53994C12.44 2.23994 11.56 2.23994 11.03 2.53994L4.03 6.42994C3.46 6.73994 3 7.52994 3 8.17994Z" fill="black"/>
<path d="M3 50.1799V57.8299C3 58.4799 3.46 59.2599 4.03 59.5799L11.03 63.4699C11.56 63.7699 12.44 63.7699 12.97 63.4699L19.97 59.5799C20.54 59.2699 21 58.4799 21 57.8299V50.1799C21 49.5299 20.54 48.7499 19.97 48.4299L12.97 44.5399C12.44 44.2399 11.56 44.2399 11.03 44.5399L4.03 48.4299C3.46 48.7399 3 49.5299 3 50.1799Z" fill="black"/>
<path d="M3 92.1799V99.8299C3 100.48 3.46 101.26 4.03 101.58L11.03 105.47C11.56 105.77 12.44 105.77 12.97 105.47L19.97 101.58C20.54 101.27 21 100.48 21 99.8299V92.1799C21 91.5299 20.54 90.7499 19.97 90.4299L12.97 86.5399C12.44 86.2399 11.56 86.2399 11.03 86.5399L4.03 90.4299C3.46 90.7399 3 91.5299 3 92.1799Z" fill="black"/>
</svg>
