<svg width="157" height="40" viewBox="0 0 157 40" fill="none" xmlns="http://www.w3.org/2000/svg">
<path d="M16.6667 3.33334C7.46667 3.33334 0 10.8 0 20C0 29.2 7.46667 36.6667 16.6667 36.6667C25.8667 36.6667 33.3333 29.2 33.3333 20C33.3333 10.8 25.8833 3.33334 16.6667 3.33334ZM21.6667 23.7167L16.8333 26.5C16.2333 26.85 15.5667 27.0167 14.9167 27.0167C14.25 27.0167 13.6 26.85 13 26.5C11.8 25.8 11.0833 24.5667 11.0833 23.1667V17.5833C11.0833 16.2 11.8 14.95 13 14.25C14.2 13.55 15.6333 13.55 16.85 14.25L21.6833 17.0333C22.8833 17.7333 23.6 18.9667 23.6 20.3667C23.6 21.7667 22.8833 23.0167 21.6667 23.7167Z" fill="#171717"/>
<path d="M76.6669 3.33334C67.4669 3.33334 60.0002 10.8 60.0002 20C60.0002 29.2 67.4669 36.6667 76.6669 36.6667C85.8669 36.6667 93.3336 29.2 93.3336 20C93.3336 10.8 85.8836 3.33334 76.6669 3.33334ZM74.5836 25.05C74.5836 25.85 74.2502 26.1667 73.4002 26.1667H71.2336C70.3836 26.1667 70.0502 25.85 70.0502 25.05V14.95C70.0502 14.15 70.3836 13.8333 71.2336 13.8333H73.3836C74.2336 13.8333 74.5669 14.15 74.5669 14.95V25.05H74.5836ZM83.3836 25.05C83.3836 25.85 83.0502 26.1667 82.2002 26.1667H80.0502C79.2002 26.1667 78.8669 25.85 78.8669 25.05V14.95C78.8669 14.15 79.2002 13.8333 80.0502 13.8333H82.2002C83.0502 13.8333 83.3836 14.15 83.3836 14.95V25.05Z" fill="#171717"/>
<path d="M136.667 3.33334C127.467 3.33334 120 10.8 120 20C120 29.2 127.467 36.6667 136.667 36.6667C145.867 36.6667 153.334 29.2 153.334 20C153.334 10.8 145.884 3.33334 136.667 3.33334ZM143.767 22.05C143.767 24.8167 141.534 27.05 138.767 27.05H134.667C131.9 27.05 129.667 24.8167 129.667 22.05V17.95C129.667 15.1833 131.9 12.95 134.667 12.95H138.767C141.534 12.95 143.767 15.1833 143.767 17.95V22.05Z" fill="#171717"/>
</svg>
