<svg width="24" height="108" viewBox="0 0 24 108" fill="none" xmlns="http://www.w3.org/2000/svg">
<path d="M3 8.18V15.83C3 16.48 3.46 17.26 4.03 17.58L11.03 21.47C11.56 21.77 12.44 21.77 12.97 21.47L19.97 17.58C20.54 17.27 21 16.48 21 15.83V8.18C21 7.53 20.54 6.75 19.97 6.43L12.97 2.54C12.44 2.24 11.56 2.24 11.03 2.54L4.03 6.43C3.46 6.74 3 7.53 3 8.18Z" fill="black"/>
<path d="M3 50.18V57.83C3 58.48 3.46 59.26 4.03 59.58L11.03 63.47C11.56 63.77 12.44 63.77 12.97 63.47L19.97 59.58C20.54 59.27 21 58.48 21 57.83V50.18C21 49.53 20.54 48.75 19.97 48.43L12.97 44.54C12.44 44.24 11.56 44.24 11.03 44.54L4.03 48.43C3.46 48.74 3 49.53 3 50.18Z" fill="black"/>
<path d="M3 92.18V99.83C3 100.48 3.46 101.26 4.03 101.58L11.03 105.47C11.56 105.77 12.44 105.77 12.97 105.47L19.97 101.58C20.54 101.27 21 100.48 21 99.83V92.18C21 91.53 20.54 90.75 19.97 90.43L12.97 86.54C12.44 86.24 11.56 86.24 11.03 86.54L4.03 90.43C3.46 90.74 3 91.53 3 92.18Z" fill="#545FF8"/>
</svg>
