<svg width="27" height="27" viewBox="0 0 27 27" fill="none" xmlns="http://www.w3.org/2000/svg">
<path d="M9.67925 26.2358H17.3208C23.6887 26.2358 26.2358 23.6887 26.2358 17.3208V9.67925C26.2358 3.31132 23.6887 0.764151 17.3208 0.764151H9.67925C3.31132 0.764151 0.764151 3.31132 0.764151 9.67925V17.3208C0.764151 23.6887 3.31132 26.2358 9.67925 26.2358Z" stroke="#515151" stroke-width="1.5" stroke-linecap="round" stroke-linejoin="round"/>
<path d="M19.8679 1.32458V14.035C19.8679 16.5439 18.0722 17.5246 15.8689 16.2L14.1877 15.1939C13.8057 14.9647 13.1943 14.9647 12.8123 15.1939L11.1311 16.2C8.92783 17.5118 7.13208 16.5439 7.13208 14.035V1.32458" stroke="#515151" stroke-width="1.5" stroke-linecap="round" stroke-linejoin="round"/>
<path d="M9.67925 26.2358H17.3208C23.6887 26.2358 26.2358 23.6887 26.2358 17.3208V9.67925C26.2358 3.31132 23.6887 0.764151 17.3208 0.764151H9.67925C3.31132 0.764151 0.764151 3.31132 0.764151 9.67925V17.3208C0.764151 23.6887 3.31132 26.2358 9.67925 26.2358Z" stroke="#515151" stroke-width="1.5" stroke-linecap="round" stroke-linejoin="round"/>
<path d="M19.8679 1.32458V14.035C19.8679 16.5439 18.0722 17.5246 15.8689 16.2L14.1877 15.1939C13.8057 14.9647 13.1943 14.9647 12.8123 15.1939L11.1311 16.2C8.92783 17.5118 7.13208 16.5439 7.13208 14.035V1.32458" stroke="#515151" stroke-width="1.5" stroke-linecap="round" stroke-linejoin="round"/>
</svg>
