<svg width="28" height="28" viewBox="0 0 28 28" fill="none" xmlns="http://www.w3.org/2000/svg">
<path d="M8.17249 2.18745C5.29549 2.18745 2.55383 4.15912 2.64833 7.28345C2.72708 9.91137 3.35299 13.4277 5.49382 17.1354C7.23669 20.1655 9.63835 22.7651 12.5212 24.742C15.1427 26.5352 18.3587 25.2886 19.8969 22.7715C20.2243 22.2358 20.3763 21.6113 20.3315 20.985C20.2868 20.3588 20.0475 19.7622 19.6472 19.2785L18.2385 17.5769C17.8347 17.089 17.2897 16.7383 16.6783 16.573C16.067 16.4078 15.4194 16.4361 14.8248 16.6541L13.0993 17.287C12.6058 17.4679 12.1561 17.3739 11.8918 17.1004C10.8068 15.9827 9.46924 14.053 8.88182 12.6239C8.74766 12.2972 8.87016 11.8521 9.34382 11.5138L10.9579 10.3605C11.4972 9.97535 11.897 9.42564 12.0972 8.79392C12.2975 8.16219 12.2874 7.48256 12.0686 6.85703L11.1516 4.23787C10.9418 3.63865 10.5509 3.11946 10.0331 2.75212C9.51524 2.38478 8.89605 2.18746 8.26116 2.18745H8.17191H8.17249ZM25.4531 2.54679C25.5209 2.6145 25.5746 2.69489 25.6113 2.78337C25.6479 2.87185 25.6668 2.96668 25.6668 3.06245C25.6668 3.15822 25.6479 3.25306 25.6113 3.34154C25.5746 3.43002 25.5209 3.51041 25.4531 3.57812L17.6563 11.3749H23.7708C23.9642 11.3749 24.1497 11.4518 24.2864 11.5885C24.4232 11.7253 24.5 11.9107 24.5 12.1041C24.5 12.2975 24.4232 12.483 24.2864 12.6197C24.1497 12.7565 23.9642 12.8333 23.7708 12.8333H15.8958C15.4933 12.8333 15.1667 12.5066 15.1667 12.1041V4.22912C15.1667 4.03573 15.2435 3.85027 15.3802 3.71352C15.517 3.57678 15.7024 3.49995 15.8958 3.49995C16.0892 3.49995 16.2747 3.57678 16.4114 3.71352C16.5482 3.85027 16.625 4.03573 16.625 4.22912V10.3436L24.4218 2.54679C24.4895 2.47906 24.5699 2.42533 24.6584 2.38867C24.7469 2.35202 24.8417 2.33315 24.9375 2.33315C25.0333 2.33315 25.1281 2.35202 25.2166 2.38867C25.305 2.42533 25.3854 2.47906 25.4531 2.54679Z" fill="#0019FF"/>
</svg>
