<svg width="130" height="125" viewBox="0 0 130 125" fill="none" xmlns="http://www.w3.org/2000/svg">
<path fill-rule="evenodd" clip-rule="evenodd" d="M101.21 99.4635C106.459 94.7213 110.641 88.9943 113.496 82.6365C116.352 76.2787 117.821 69.4253 117.813 62.5C117.813 34.4531 94.1688 11.7188 65 11.7188C35.8313 11.7188 12.1875 34.4531 12.1875 62.5C12.1792 69.4253 13.6482 76.2787 16.5038 82.6365C19.3594 88.9943 23.5408 94.7213 28.7896 99.4635C38.5772 108.354 51.5361 113.299 65 113.281C78.464 113.299 91.4229 108.354 101.21 99.4635ZM33.2854 92.7708C37.0884 88.1961 41.9143 84.5038 47.4047 81.9683C52.8952 79.4328 58.9092 78.1192 65 78.125C71.0909 78.1192 77.1049 79.4328 82.5953 81.9683C88.0858 84.5038 92.9117 88.1961 96.7146 92.7708C92.5656 96.8005 87.6257 99.998 82.1816 102.178C76.7374 104.357 70.8973 105.476 65 105.469C59.1028 105.476 53.2627 104.357 47.8185 102.178C42.3743 99.998 37.4345 96.8005 33.2854 92.7708ZM85.3125 46.875C85.3125 52.055 83.1725 57.0229 79.3631 60.6857C75.5538 64.3485 70.3872 66.4062 65 66.4062C59.6128 66.4062 54.4463 64.3485 50.6369 60.6857C46.8276 57.0229 44.6875 52.055 44.6875 46.875C44.6875 41.695 46.8276 36.7271 50.6369 33.0643C54.4463 29.4015 59.6128 27.3438 65 27.3438C70.3872 27.3438 75.5538 29.4015 79.3631 33.0643C83.1725 36.7271 85.3125 41.695 85.3125 46.875Z" fill="black"/>
</svg>
