<svg width="28" height="25" viewBox="0 0 28 25" fill="none" xmlns="http://www.w3.org/2000/svg">
<path d="M26.0437 8.83251C25.505 8.75791 24.9909 8.56842 24.5397 8.27815C24.0884 7.98788 23.7117 7.60431 23.4375 7.156C23.1634 6.70768 22.9988 6.20618 22.9561 5.68884C22.9134 5.17149 22.9937 4.65163 23.191 4.16797C23.3164 3.85178 23.3349 3.50609 23.2439 3.17938C23.1528 2.85267 22.9568 2.56131 22.6833 2.34616C21.4757 1.37952 20.1013 0.620147 18.6211 0.101906C18.2841 -0.0174506 17.9161 -0.0323633 17.5697 0.0592924C17.2232 0.150948 16.916 0.344497 16.6916 0.612365C16.354 1.02395 15.9225 1.35683 15.4298 1.58577C14.9371 1.8147 14.3962 1.93368 13.8482 1.93368C13.3001 1.93368 12.7592 1.8147 12.2665 1.58577C11.7738 1.35683 11.3423 1.02395 11.0047 0.612365C10.7803 0.344497 10.4731 0.150948 10.1266 0.0592924C9.78017 -0.0323633 9.41221 -0.0174506 9.07516 0.101906C7.70851 0.580366 6.43071 1.26371 5.29001 2.12614C5.00247 2.34314 4.79536 2.6422 4.699 2.97953C4.60265 3.31686 4.62211 3.67473 4.75455 4.00075C4.96758 4.49721 5.0556 5.03435 5.01154 5.56909C4.96748 6.10383 4.79257 6.62129 4.50085 7.07995C4.20912 7.53861 3.80869 7.92571 3.33169 8.21019C2.85468 8.49468 2.31438 8.66863 1.75412 8.71809C1.39038 8.75517 1.04874 8.9026 0.779495 9.13867C0.510251 9.37475 0.32763 9.687 0.258518 10.0294C0.0866148 10.8406 1.99786e-05 11.6661 1.99786e-05 12.4937C-0.00124352 13.1866 0.0574252 13.8783 0.17543 14.562C0.234159 14.9154 0.413383 15.2405 0.685392 15.4871C0.9574 15.7337 1.30704 15.888 1.68026 15.9261C2.25283 15.9773 2.8042 16.1586 3.28822 16.4546C3.77224 16.7507 4.17482 17.153 4.46229 17.6278C4.74975 18.1026 4.91372 18.6362 4.94047 19.1838C4.96723 19.7315 4.85599 20.2772 4.61606 20.7755C4.45905 21.0996 4.4201 21.4644 4.50541 21.812C4.59071 22.1596 4.79537 22.47 5.0869 22.6941C6.28718 23.6432 7.64841 24.3902 9.11209 24.9031C9.29926 24.965 9.49565 24.9976 9.69371 25C9.96529 24.9994 10.2328 24.9368 10.4737 24.8173C10.7147 24.6979 10.9221 24.5251 11.0785 24.3135C11.4076 23.8565 11.8487 23.4829 12.3635 23.2252C12.8783 22.9676 13.4513 22.8336 14.0328 22.8349C14.5962 22.8356 15.1516 22.9617 15.6549 23.2031C16.1582 23.4445 16.5954 23.7946 16.9317 24.2255C17.1554 24.5121 17.4722 24.7202 17.8329 24.8173C18.1936 24.9144 18.5778 24.8951 18.9258 24.7623C20.2642 24.2488 21.5101 23.5391 22.6186 22.6589C22.8971 22.4394 23.0954 22.1414 23.1849 21.8077C23.2745 21.4741 23.2508 21.1219 23.1172 20.8019C22.9 20.3118 22.8053 19.7804 22.8406 19.2494C22.8759 18.7185 23.0401 18.2027 23.3203 17.7426C23.6006 17.2826 23.9891 16.8909 24.4554 16.5986C24.9216 16.3063 25.4527 16.1212 26.0068 16.0581C26.3661 16.0108 26.7003 15.8556 26.9609 15.6151C27.2215 15.3746 27.395 15.0612 27.4562 14.7204C27.6045 13.9863 27.6848 13.2412 27.6963 12.4937C27.6965 11.7053 27.6192 10.9186 27.4655 10.1439C27.4031 9.81056 27.2322 9.50447 26.977 9.26906C26.7218 9.03365 26.3952 8.8809 26.0437 8.83251ZM18.4642 12.4937C18.4642 13.3641 18.1935 14.2149 17.6863 14.9385C17.179 15.6622 16.4581 16.2262 15.6146 16.5593C14.7712 16.8923 13.843 16.9795 12.9476 16.8097C12.0522 16.6399 11.2297 16.2208 10.5841 15.6054C9.93855 14.9899 9.49891 14.2058 9.3208 13.3522C9.14269 12.4986 9.23411 11.6138 9.58348 10.8097C9.93286 10.0056 10.5245 9.31838 11.2836 8.83484C12.0427 8.35131 12.9352 8.09322 13.8482 8.09322C15.0724 8.09322 16.2465 8.55685 17.1122 9.3821C17.9779 10.2074 18.4642 11.3266 18.4642 12.4937Z" fill="#A5A5A5"/>
</svg>
