<svg width="249" height="45" viewBox="0 0 249 45" fill="none" xmlns="http://www.w3.org/2000/svg">
<path d="M2.016 31V14.416H8.184C9.352 14.416 10.328 14.592 11.112 14.944C11.912 15.296 12.512 15.848 12.912 16.6C13.312 17.336 13.512 18.288 13.512 19.456C13.512 20.672 13.264 21.696 12.768 22.528C12.288 23.36 11.528 23.944 10.488 24.28L13.656 31H11.52L8.592 24.688H3.936V31H2.016ZM3.936 23.008H8.208C9.024 23.008 9.672 22.856 10.152 22.552C10.648 22.248 11 21.832 11.208 21.304C11.416 20.76 11.52 20.152 11.52 19.48C11.52 18.344 11.248 17.496 10.704 16.936C10.16 16.376 9.32 16.096 8.184 16.096H3.936V23.008ZM20.7651 31.24C19.5651 31.24 18.6131 31.008 17.9091 30.544C17.2211 30.08 16.7251 29.392 16.4211 28.48C16.1171 27.568 15.9651 26.432 15.9651 25.072C15.9651 23.552 16.1731 22.336 16.5891 21.424C17.0051 20.496 17.5891 19.824 18.3411 19.408C19.0931 18.976 19.9811 18.76 21.0051 18.76C22.6051 18.76 23.8131 19.208 24.6291 20.104C25.4451 20.984 25.8531 22.408 25.8531 24.376L25.7571 25.792H17.8611C17.8771 27.04 18.1091 27.984 18.5571 28.624C19.0051 29.264 19.8131 29.584 20.9811 29.584C21.4291 29.584 21.9171 29.576 22.4451 29.56C22.9891 29.528 23.5251 29.496 24.0531 29.464C24.5811 29.432 25.0291 29.4 25.3971 29.368L25.4451 30.832C25.0611 30.896 24.5891 30.96 24.0291 31.024C23.4851 31.088 22.9251 31.136 22.3491 31.168C21.7731 31.216 21.2451 31.24 20.7651 31.24ZM17.8611 24.28H23.9811C23.9811 22.808 23.7411 21.784 23.2611 21.208C22.7971 20.616 22.0451 20.32 21.0051 20.32C19.9971 20.32 19.2211 20.624 18.6771 21.232C18.1331 21.84 17.8611 22.856 17.8611 24.28ZM33.2663 36.64C32.0183 36.64 31.0103 36.528 30.2423 36.304C29.4903 36.096 28.9383 35.728 28.5863 35.2C28.2503 34.672 28.0823 33.952 28.0823 33.04C28.0823 32.576 28.1543 32.176 28.2983 31.84C28.4423 31.52 28.6503 31.224 28.9223 30.952C29.2103 30.664 29.5623 30.368 29.9783 30.064C29.7703 29.904 29.6023 29.68 29.4743 29.392C29.3623 29.088 29.3063 28.752 29.3063 28.384C29.3063 28.208 29.3943 27.928 29.5703 27.544C29.7623 27.144 29.9463 26.792 30.1223 26.488C29.7863 26.328 29.4743 26.112 29.1863 25.84C28.9143 25.552 28.6903 25.168 28.5143 24.688C28.3383 24.208 28.2503 23.6 28.2503 22.864C28.2503 21.392 28.6663 20.344 29.4983 19.72C30.3303 19.08 31.4103 18.76 32.7383 18.76C33.1703 18.76 33.6263 18.792 34.1063 18.856C34.5863 18.92 34.9623 18.992 35.2343 19.072L38.8103 18.976V20.56L36.5543 20.512C36.7783 20.736 36.9623 21.032 37.1063 21.4C37.2663 21.768 37.3463 22.256 37.3463 22.864C37.3463 23.904 37.1703 24.72 36.8183 25.312C36.4663 25.904 35.9463 26.32 35.2583 26.56C34.5703 26.8 33.7063 26.92 32.6663 26.92C32.5543 26.92 32.3623 26.912 32.0903 26.896C31.8343 26.864 31.6423 26.84 31.5143 26.824C31.4183 27.048 31.3223 27.304 31.2263 27.592C31.1303 27.88 31.0823 28.08 31.0823 28.192C31.0823 28.496 31.1383 28.728 31.2503 28.888C31.3623 29.048 31.6183 29.152 32.0183 29.2C32.4343 29.248 33.0823 29.272 33.9622 29.272C35.1143 29.272 36.0343 29.368 36.7223 29.56C37.4103 29.752 37.8983 30.104 38.1863 30.616C38.4903 31.112 38.6423 31.84 38.6423 32.8C38.6423 34.16 38.1703 35.136 37.2263 35.728C36.2823 36.336 34.9623 36.64 33.2663 36.64ZM33.2903 35.056C34.4743 35.056 35.3463 34.888 35.9063 34.552C36.4663 34.216 36.7463 33.664 36.7463 32.896C36.7463 32.304 36.6503 31.864 36.4583 31.576C36.2823 31.304 35.9783 31.12 35.5463 31.024C35.1143 30.944 34.5383 30.904 33.8183 30.904C33.6743 30.904 33.4743 30.904 33.2183 30.904C32.9623 30.888 32.6983 30.88 32.4263 30.88C32.1543 30.864 31.9063 30.848 31.6823 30.832C31.4743 30.816 31.3303 30.808 31.2503 30.808C30.7543 31.16 30.4103 31.472 30.2183 31.744C30.0263 32.032 29.9303 32.408 29.9303 32.872C29.9303 33.4 30.0263 33.824 30.2183 34.144C30.4103 34.464 30.7463 34.696 31.2263 34.84C31.7223 34.984 32.4103 35.056 33.2903 35.056ZM32.7383 25.432C33.7303 25.432 34.4343 25.24 34.8503 24.856C35.2663 24.456 35.4743 23.792 35.4743 22.864C35.4743 21.936 35.2663 21.272 34.8503 20.872C34.4343 20.472 33.7303 20.272 32.7383 20.272C31.8103 20.272 31.1383 20.472 30.7223 20.872C30.3223 21.272 30.1223 21.936 30.1223 22.864C30.1223 23.792 30.3223 24.456 30.7223 24.856C31.1383 25.24 31.8103 25.432 32.7383 25.432ZM40.9858 31V19H42.8338V31H40.9858ZM40.9858 16.36V14.2H42.8338V16.36H40.9858ZM50.8907 31.24C49.5467 31.24 48.4987 31.008 47.7467 30.544C47.0107 30.08 46.4907 29.376 46.1867 28.432C45.8987 27.488 45.7547 26.296 45.7547 24.856C45.7547 23.48 45.9147 22.344 46.2347 21.448C46.5707 20.552 47.1147 19.88 47.8667 19.432C48.6187 18.984 49.6267 18.76 50.8907 18.76C52.1707 18.76 53.1867 18.984 53.9387 19.432C54.6907 19.88 55.2267 20.552 55.5467 21.448C55.8827 22.344 56.0507 23.48 56.0507 24.856C56.0507 26.296 55.8987 27.488 55.5947 28.432C55.3067 29.376 54.7867 30.08 54.0347 30.544C53.2987 31.008 52.2507 31.24 50.8907 31.24ZM50.8907 29.632C51.8187 29.632 52.5147 29.472 52.9787 29.152C53.4427 28.816 53.7467 28.296 53.8907 27.592C54.0507 26.888 54.1307 25.976 54.1307 24.856C54.1307 23.752 54.0347 22.872 53.8427 22.216C53.6507 21.56 53.3227 21.088 52.8587 20.8C52.3947 20.512 51.7387 20.368 50.8907 20.368C50.0587 20.368 49.4027 20.512 48.9227 20.8C48.4587 21.088 48.1307 21.56 47.9387 22.216C47.7467 22.872 47.6507 23.752 47.6507 24.856C47.6507 25.976 47.7227 26.888 47.8667 27.592C48.0267 28.296 48.3387 28.816 48.8027 29.152C49.2667 29.472 49.9627 29.632 50.8907 29.632ZM58.9858 31V19H60.8338V19.84C61.1058 19.68 61.4418 19.52 61.8418 19.36C62.2578 19.2 62.6978 19.064 63.1618 18.952C63.6258 18.824 64.0738 18.76 64.5058 18.76C65.6098 18.76 66.4498 18.96 67.0258 19.36C67.6178 19.744 68.0258 20.368 68.2498 21.232C68.4738 22.096 68.5858 23.232 68.5858 24.64V31H66.7138V24.712C66.7138 23.672 66.6498 22.84 66.5218 22.216C66.4098 21.592 66.1698 21.144 65.8018 20.872C65.4498 20.584 64.9058 20.44 64.1698 20.44C63.7698 20.44 63.3538 20.488 62.9218 20.584C62.5058 20.664 62.1138 20.776 61.7458 20.92C61.3778 21.048 61.0738 21.176 60.8338 21.304V31H58.9858ZM77.4613 31V14.416H83.5093C84.5973 14.416 85.5013 14.56 86.2213 14.848C86.9573 15.136 87.5093 15.592 87.8773 16.216C88.2613 16.84 88.4533 17.648 88.4533 18.64C88.4533 19.344 88.3653 19.944 88.1893 20.44C88.0293 20.92 87.7973 21.32 87.4933 21.64C87.1893 21.96 86.8133 22.232 86.3653 22.456C86.8453 22.616 87.2773 22.848 87.6613 23.152C88.0613 23.456 88.3733 23.864 88.5973 24.376C88.8373 24.888 88.9573 25.544 88.9573 26.344C88.9573 27.208 88.8373 27.944 88.5973 28.552C88.3573 29.144 88.0053 29.624 87.5413 29.992C87.0933 30.344 86.5493 30.6 85.9093 30.76C85.2853 30.92 84.5813 31 83.7973 31H77.4613ZM79.3813 29.32H83.7253C84.3973 29.32 84.9733 29.232 85.4533 29.056C85.9493 28.88 86.3333 28.576 86.6053 28.144C86.8773 27.696 87.0133 27.072 87.0133 26.272C87.0133 25.648 86.8933 25.144 86.6533 24.76C86.4293 24.376 86.1413 24.088 85.7893 23.896C85.4373 23.704 85.0693 23.576 84.6853 23.512C84.3013 23.448 83.9493 23.416 83.6293 23.416H79.3813V29.32ZM79.3813 21.736H83.6053C84.6293 21.736 85.3653 21.496 85.8133 21.016C86.2773 20.52 86.5093 19.784 86.5093 18.808C86.5093 17.864 86.2533 17.176 85.7413 16.744C85.2453 16.312 84.4773 16.096 83.4373 16.096H79.3813V21.736ZM91.8189 23.32V20.512H93.8589V23.32H91.8189ZM91.8189 31V28.192H93.8589V31H91.8189Z" fill="black"/>
<g filter="url(#filter0_d_7_674)">
<rect x="122" y="4" width="127" height="35" fill="black"/>
</g>
<path d="M162.4 28.2C161.387 28.2 160.52 28.0533 159.8 27.76C159.08 27.4667 158.527 27 158.14 26.36C157.767 25.7067 157.58 24.8467 157.58 23.78V14.18H159.18V23.82C159.18 24.8733 159.46 25.6333 160.02 26.1C160.593 26.5533 161.387 26.78 162.4 26.78C163.467 26.78 164.287 26.5533 164.86 26.1C165.433 25.6333 165.72 24.8733 165.72 23.82V14.18H167.32V23.78C167.32 24.8333 167.127 25.6867 166.74 26.34C166.367 26.9933 165.813 27.4667 165.08 27.76C164.347 28.0533 163.453 28.2 162.4 28.2ZM170.331 32.42V18H171.871V18.72C172.084 18.5867 172.351 18.4533 172.671 18.32C173.004 18.1733 173.357 18.0533 173.731 17.96C174.104 17.8533 174.464 17.8 174.811 17.8C176.077 17.8 177.004 18.2067 177.591 19.02C178.177 19.82 178.471 21.1067 178.471 22.88C178.471 24.1867 178.317 25.2333 178.011 26.02C177.717 26.7933 177.244 27.3533 176.591 27.7C175.951 28.0333 175.117 28.2 174.091 28.2C173.677 28.2 173.257 28.1733 172.831 28.12C172.417 28.0667 172.097 28.02 171.871 27.98V32.42H170.331ZM174.011 26.84C174.731 26.84 175.297 26.7067 175.711 26.44C176.137 26.1733 176.437 25.7533 176.611 25.18C176.784 24.5933 176.871 23.8267 176.871 22.88C176.871 21.5333 176.671 20.5867 176.271 20.04C175.871 19.48 175.311 19.2 174.591 19.2C174.271 19.2 173.937 19.24 173.591 19.32C173.257 19.4 172.937 19.5 172.631 19.62C172.324 19.7267 172.071 19.84 171.871 19.96V26.64C172.084 26.6667 172.397 26.7067 172.811 26.76C173.224 26.8133 173.624 26.84 174.011 26.84ZM181.017 28V13.66H182.557V28H181.017ZM189.405 28.2C188.285 28.2 187.412 28.0067 186.785 27.62C186.172 27.2333 185.738 26.6467 185.485 25.86C185.245 25.0733 185.125 24.08 185.125 22.88C185.125 21.7333 185.258 20.7867 185.525 20.04C185.805 19.2933 186.258 18.7333 186.885 18.36C187.512 17.9867 188.352 17.8 189.405 17.8C190.472 17.8 191.318 17.9867 191.945 18.36C192.572 18.7333 193.018 19.2933 193.285 20.04C193.565 20.7867 193.705 21.7333 193.705 22.88C193.705 24.08 193.578 25.0733 193.325 25.86C193.085 26.6467 192.652 27.2333 192.025 27.62C191.412 28.0067 190.538 28.2 189.405 28.2ZM189.405 26.86C190.178 26.86 190.758 26.7267 191.145 26.46C191.532 26.18 191.785 25.7467 191.905 25.16C192.038 24.5733 192.105 23.8133 192.105 22.88C192.105 21.96 192.025 21.2267 191.865 20.68C191.705 20.1333 191.432 19.74 191.045 19.5C190.658 19.26 190.112 19.14 189.405 19.14C188.712 19.14 188.165 19.26 187.765 19.5C187.378 19.74 187.105 20.1333 186.945 20.68C186.785 21.2267 186.705 21.96 186.705 22.88C186.705 23.8133 186.765 24.5733 186.885 25.16C187.018 25.7467 187.278 26.18 187.665 26.46C188.052 26.7267 188.632 26.86 189.405 26.86ZM198.331 28.2C197.411 28.2 196.711 27.94 196.231 27.42C195.751 26.9 195.511 26.14 195.511 25.14C195.511 24.4867 195.624 23.9533 195.851 23.54C196.078 23.1267 196.418 22.8133 196.871 22.6C197.338 22.3733 197.911 22.2333 198.591 22.18L201.671 21.88V21.02C201.671 20.34 201.518 19.86 201.211 19.58C200.918 19.3 200.478 19.16 199.891 19.16C199.558 19.16 199.158 19.1733 198.691 19.2C198.238 19.2267 197.784 19.26 197.331 19.3C196.878 19.34 196.478 19.38 196.131 19.42L196.051 18.24C196.371 18.1733 196.758 18.1067 197.211 18.04C197.664 17.9733 198.138 17.92 198.631 17.88C199.124 17.8267 199.578 17.8 199.991 17.8C200.751 17.8 201.371 17.92 201.851 18.16C202.331 18.3867 202.678 18.74 202.891 19.22C203.118 19.6867 203.231 20.2867 203.231 21.02V26.08C203.258 26.3733 203.371 26.5867 203.571 26.72C203.784 26.8533 204.051 26.94 204.371 26.98L204.311 28.2C204.018 28.2 203.751 28.18 203.511 28.14C203.271 28.1133 203.044 28.0667 202.831 28C202.658 27.9333 202.491 27.8533 202.331 27.76C202.184 27.6667 202.038 27.5533 201.891 27.42C201.638 27.5267 201.311 27.64 200.911 27.76C200.524 27.88 200.104 27.98 199.651 28.06C199.211 28.1533 198.771 28.2 198.331 28.2ZM198.591 26.9C198.951 26.9 199.324 26.8667 199.711 26.8C200.098 26.7333 200.464 26.6533 200.811 26.56C201.158 26.4667 201.444 26.38 201.671 26.3V23.04L198.771 23.32C198.171 23.3733 197.738 23.5467 197.471 23.84C197.218 24.1333 197.091 24.5533 197.091 25.1C197.091 25.66 197.218 26.1 197.471 26.42C197.724 26.74 198.098 26.9 198.591 26.9ZM209.35 28.2C208.95 28.2 208.57 28.1533 208.21 28.06C207.85 27.98 207.517 27.8333 207.21 27.62C206.917 27.4067 206.657 27.1133 206.43 26.74C206.203 26.3533 206.03 25.86 205.91 25.26C205.79 24.66 205.73 23.9333 205.73 23.08C205.73 21.8933 205.87 20.9133 206.15 20.14C206.43 19.3533 206.877 18.7667 207.49 18.38C208.103 17.9933 208.917 17.8 209.93 17.8C210.317 17.8 210.75 17.8333 211.23 17.9C211.71 17.9533 212.083 18.0067 212.35 18.06V13.66H213.91V28H212.37V27.34C212.157 27.46 211.877 27.5867 211.53 27.72C211.197 27.8533 210.837 27.9667 210.45 28.06C210.077 28.1533 209.71 28.2 209.35 28.2ZM209.55 26.8C209.897 26.8 210.243 26.76 210.59 26.68C210.95 26.6 211.283 26.5067 211.59 26.4C211.897 26.28 212.15 26.1733 212.35 26.08V19.38C212.19 19.3533 211.97 19.3267 211.69 19.3C211.41 19.26 211.117 19.2267 210.81 19.2C210.517 19.1733 210.25 19.16 210.01 19.16C209.33 19.16 208.797 19.3067 208.41 19.6C208.023 19.8933 207.743 20.3333 207.57 20.92C207.41 21.4933 207.33 22.2133 207.33 23.08C207.33 23.88 207.39 24.5267 207.51 25.02C207.63 25.5 207.79 25.8733 207.99 26.14C208.203 26.3933 208.443 26.5667 208.71 26.66C208.977 26.7533 209.257 26.8 209.55 26.8Z" fill="white"/>
<defs>
<filter id="filter0_d_7_674" x="118" y="4" width="135" height="43" filterUnits="userSpaceOnUse" color-interpolation-filters="sRGB">
<feFlood flood-opacity="0" result="BackgroundImageFix"/>
<feColorMatrix in="SourceAlpha" type="matrix" values="0 0 0 0 0 0 0 0 0 0 0 0 0 0 0 0 0 0 127 0" result="hardAlpha"/>
<feOffset dy="4"/>
<feGaussianBlur stdDeviation="2"/>
<feColorMatrix type="matrix" values="0 0 0 0 0 0 0 0 0 0 0 0 0 0 0 0 0 0 0.04 0"/>
<feBlend mode="normal" in2="BackgroundImageFix" result="effect1_dropShadow_7_674"/>
<feBlend mode="normal" in="SourceGraphic" in2="effect1_dropShadow_7_674" result="shape"/>
</filter>
</defs>
</svg>
