<svg width="43" height="43" viewBox="0 0 43 43" fill="none" xmlns="http://www.w3.org/2000/svg">
<path d="M19.7085 32.25H23.2918V28.6667H19.7085V32.25ZM21.5002 3.58334C19.1473 3.58334 16.8175 4.04677 14.6438 4.94717C12.47 5.84757 10.4949 7.1673 8.83117 8.83101C5.47114 12.191 3.5835 16.7482 3.5835 21.5C3.5835 26.2518 5.47114 30.809 8.83117 34.169C10.4949 35.8327 12.47 37.1525 14.6438 38.0529C16.8175 38.9533 19.1473 39.4167 21.5002 39.4167C26.252 39.4167 30.8091 37.529 34.1692 34.169C37.5292 30.809 39.4168 26.2518 39.4168 21.5C39.4168 19.1472 38.9534 16.8173 38.053 14.6436C37.1526 12.4698 35.8329 10.4947 34.1692 8.83101C32.5054 7.1673 30.5303 5.84757 28.3566 4.94717C26.1828 4.04677 23.853 3.58334 21.5002 3.58334ZM21.5002 35.8333C13.5989 35.8333 7.16683 29.4013 7.16683 21.5C7.16683 13.5988 13.5989 7.16668 21.5002 7.16668C29.4014 7.16668 35.8335 13.5988 35.8335 21.5C35.8335 29.4013 29.4014 35.8333 21.5002 35.8333ZM21.5002 10.75C19.5994 10.75 17.7766 11.5051 16.4326 12.8491C15.0886 14.1931 14.3335 16.016 14.3335 17.9167H17.9168C17.9168 16.9663 18.2944 16.0549 18.9664 15.3829C19.6384 14.7109 20.5498 14.3333 21.5002 14.3333C22.4505 14.3333 23.362 14.7109 24.034 15.3829C24.706 16.0549 25.0835 16.9663 25.0835 17.9167C25.0835 21.5 19.7085 21.0521 19.7085 26.875H23.2918C23.2918 22.8438 28.6668 22.3958 28.6668 17.9167C28.6668 16.016 27.9118 14.1931 26.5678 12.8491C25.2238 11.5051 23.4009 10.75 21.5002 10.75Z" fill="#8F8F8F"/>
</svg>
