<svg width="33" height="33" viewBox="0 0 33 33" fill="none" xmlns="http://www.w3.org/2000/svg">
<path d="M16.5 2.57812C13.7465 2.57813 11.0549 3.39463 8.76543 4.92438C6.47599 6.45414 4.69158 8.62844 3.63787 11.1723C2.58416 13.7162 2.30846 16.5154 2.84564 19.216C3.38281 21.9166 4.70875 24.3972 6.65575 26.3443C8.60276 28.2913 11.0834 29.6172 13.784 30.1544C16.4846 30.6915 19.2838 30.4158 21.8277 29.3621C24.3716 28.3084 26.5459 26.524 28.0756 24.2346C29.6054 21.9451 30.4219 19.2535 30.4219 16.5C30.4178 12.8089 28.9497 9.27024 26.3397 6.66027C23.7298 4.0503 20.1911 2.58222 16.5 2.57812ZM16.5 27.3281C14.3584 27.3281 12.2649 26.6931 10.4842 25.5033C8.70355 24.3134 7.31568 22.6223 6.49612 20.6437C5.67657 18.6652 5.46214 16.488 5.87994 14.3875C6.29775 12.2871 7.32902 10.3577 8.84337 8.84336C10.3577 7.32902 12.2871 6.29774 14.3875 5.87993C16.488 5.46213 18.6652 5.67656 20.6437 6.49612C22.6223 7.31567 24.3135 8.70354 25.5033 10.4842C26.6931 12.2649 27.3281 14.3584 27.3281 16.5C27.3251 19.3709 26.1833 22.1232 24.1533 24.1532C22.1233 26.1833 19.3709 27.3251 16.5 27.3281Z" fill="#838383"/>
</svg>
