<svg width="28" height="28" viewBox="0 0 28 28" fill="none" xmlns="http://www.w3.org/2000/svg">
<path d="M9.14901 2.96242C7.69301 2.59282 6.16701 2.74962 4.97141 3.41882C3.75341 4.09922 2.89941 5.30602 2.85741 6.92022C2.79301 9.44302 3.37681 12.8282 5.69521 16.8014C7.98421 20.7256 10.5112 23.0776 12.6084 24.4748C13.9328 25.3582 15.3958 25.382 16.646 24.8066C17.878 24.2396 18.8776 23.107 19.397 21.7028C19.5263 21.3536 19.5782 20.9804 19.5492 20.6092C19.5202 20.2379 19.411 19.8773 19.229 19.5524L18.1034 17.5434C17.8763 17.1379 17.5707 16.7816 17.2044 16.4954C16.8381 16.2092 16.4185 15.9989 15.9701 15.8766C15.5216 15.7544 15.0533 15.7227 14.5925 15.7834C14.1316 15.8441 13.6875 15.996 13.286 16.2302L12.6742 16.5872C12.1856 16.8714 11.6886 16.8028 11.417 16.5186C10.5042 15.5652 9.67401 14.1694 9.29881 12.9122C9.19381 12.5608 9.36181 12.117 9.81961 11.8272L10.9256 11.1244C11.6862 10.6416 12.2314 9.88398 12.4475 9.00936C12.6637 8.13474 12.5343 7.21044 12.0862 6.42882L10.829 4.23642C10.6487 3.92225 10.4071 3.64756 10.1185 3.4287C9.82986 3.20983 9.50017 3.05126 9.14901 2.96242ZM24.9956 3.00442C25.1268 3.13569 25.2006 3.31371 25.2006 3.49932C25.2006 3.68494 25.1268 3.86295 24.9956 3.99422L21.2898 7.70002L24.9956 11.4044C25.1269 11.5359 25.2005 11.7141 25.2004 11.8998C25.2003 12.0856 25.1264 12.2637 24.9949 12.3949C24.8635 12.5262 24.6853 12.5998 24.4995 12.5997C24.3138 12.5996 24.1357 12.5257 24.0044 12.3942L20.3 8.68982L16.5956 12.3942C16.4644 12.5257 16.2863 12.5996 16.1005 12.5997C15.9148 12.5998 15.7366 12.5262 15.6051 12.3949C15.4737 12.2637 15.3998 12.0856 15.3996 11.8998C15.3995 11.7141 15.4732 11.5359 15.6044 11.4044L19.3102 7.70002L15.6044 3.99422C15.4732 3.86278 15.3995 3.68458 15.3996 3.49883C15.3998 3.31307 15.4737 3.13498 15.6051 3.00372C15.7366 2.87247 15.9148 2.7988 16.1005 2.79893C16.2863 2.79906 16.4644 2.87298 16.5956 3.00442L20.3 6.70882L24.0044 3.00442C24.0694 2.93923 24.1467 2.88751 24.2317 2.85222C24.3168 2.81694 24.4079 2.79877 24.5 2.79877C24.5921 2.79877 24.6833 2.81694 24.7683 2.85222C24.8533 2.88751 24.9306 2.93923 24.9956 3.00442Z" fill="#EB2222"/>
</svg>
