<svg width="25" height="25" viewBox="0 0 25 25" fill="none" xmlns="http://www.w3.org/2000/svg">
<path d="M4.16667 13.5417C4.74197 13.5417 5.20834 13.0753 5.20834 12.5C5.20834 11.9247 4.74197 11.4583 4.16667 11.4583C3.59138 11.4583 3.12501 11.9247 3.12501 12.5C3.12501 13.0753 3.59138 13.5417 4.16667 13.5417Z" stroke="#225ECD" stroke-width="3.33333"/>
<path d="M12.5 13.5417C13.0753 13.5417 13.5417 13.0753 13.5417 12.5C13.5417 11.9247 13.0753 11.4583 12.5 11.4583C11.9247 11.4583 11.4583 11.9247 11.4583 12.5C11.4583 13.0753 11.9247 13.5417 12.5 13.5417Z" stroke="#225ECD" stroke-width="3.33333"/>
<path d="M20.8334 13.5417C21.4086 13.5417 21.875 13.0753 21.875 12.5C21.875 11.9247 21.4086 11.4583 20.8334 11.4583C20.2581 11.4583 19.7917 11.9247 19.7917 12.5C19.7917 13.0753 20.2581 13.5417 20.8334 13.5417Z" stroke="#225ECD" stroke-width="3.33333"/>
</svg>
