<svg width="30" height="30" viewBox="0 0 30 30" fill="none" xmlns="http://www.w3.org/2000/svg">
<path d="M15 0C6.72 0 0 6.72 0 15C0 23.28 6.72 30 15 30C23.28 30 30 23.28 30 15C30 6.72 23.28 0 15 0ZM17.445 18.435C17.445 19.2 16.83 19.815 16.065 19.815L10.545 19.86C8.235 19.875 6.35999 18.015 6.35999 15.705V11.505C6.35999 10.74 6.97501 10.125 7.74001 10.125H13.275C15.57 10.125 17.43 11.985 17.43 14.28V18.435H17.445ZM23.625 18C23.625 18.645 22.905 19.035 22.365 18.675L19.485 16.755C19.26 16.605 19.125 16.35 19.125 16.08V13.95C19.125 13.68 19.26 13.425 19.485 13.275L22.365 11.355C22.905 10.995 23.625 11.385 23.625 12.03V18Z" fill="#545FF8"/>
</svg>
