<svg width="22" height="22" viewBox="0 0 22 22" fill="none" xmlns="http://www.w3.org/2000/svg">
<path d="M7.93023 8.95348C9.06048 8.95348 9.97674 8.03723 9.97674 6.90697C9.97674 5.77672 9.06048 4.86046 7.93023 4.86046C6.79997 4.86046 5.88372 5.77672 5.88372 6.90697C5.88372 8.03723 6.79997 8.95348 7.93023 8.95348Z" stroke="#171717" stroke-width="1.5" stroke-linecap="round" stroke-linejoin="round"/>
<path d="M12.0232 0.767441H7.93023C2.81395 0.767441 0.767441 2.81395 0.767441 7.93023V14.0698C0.767441 19.186 2.81395 21.2325 7.93023 21.2325H14.0698C19.186 21.2325 21.2325 19.186 21.2325 14.0698V8.95348" stroke="#171717" stroke-width="1.5" stroke-linecap="round" stroke-linejoin="round"/>
<path d="M14.8372 3.83721H20.4651" stroke="#171717" stroke-width="1.5" stroke-linecap="round"/>
<path d="M17.6512 6.65116V1.02326" stroke="#171717" stroke-width="1.5" stroke-linecap="round"/>
<path d="M1.45302 18.1116L6.49767 14.7246C7.30604 14.1823 8.47255 14.2437 9.19906 14.8679L9.53674 15.1646C10.3349 15.8502 11.6242 15.8502 12.4223 15.1646L16.6791 11.5116C17.4772 10.826 18.7665 10.826 19.5646 11.5116L21.2325 12.9442" stroke="#171717" stroke-width="1.5" stroke-linecap="round" stroke-linejoin="round"/>
</svg>
