<svg width="31" height="31" viewBox="0 0 31 31" fill="none" xmlns="http://www.w3.org/2000/svg">
<path d="M22.8709 22.8709C26.9417 22.8709 30.2418 19.5708 30.2418 15.5C30.2418 11.4291 26.9417 8.12905 22.8709 8.12905C18.8 8.12905 15.4999 11.4291 15.4999 15.5C15.4999 19.5708 18.8 22.8709 22.8709 22.8709Z" stroke="#171717" stroke-width="1.5" stroke-miterlimit="10" stroke-linecap="round" stroke-linejoin="round"/>
<path d="M15.4999 30.2419C19.5707 30.2419 22.8708 26.9418 22.8708 22.8709C22.8708 18.8001 19.5707 15.5 15.4999 15.5C11.429 15.5 8.12892 18.8001 8.12892 22.8709C8.12892 26.9418 11.429 30.2419 15.4999 30.2419Z" stroke="#171717" stroke-width="1.5" stroke-miterlimit="10" stroke-linecap="round" stroke-linejoin="round"/>
<path d="M15.4999 15.5C19.5707 15.5 22.8708 12.1999 22.8708 8.12909C22.8708 4.05823 19.5707 0.758153 15.4999 0.758153C11.429 0.758153 8.12892 4.05823 8.12892 8.12909C8.12892 12.1999 11.429 15.5 15.4999 15.5Z" stroke="#171717" stroke-width="1.5" stroke-miterlimit="10" stroke-linecap="round" stroke-linejoin="round"/>
<path d="M8.12909 22.8709C12.1999 22.8709 15.5 19.5708 15.5 15.5C15.5 11.4291 12.1999 8.12905 8.12909 8.12905C4.05823 8.12905 0.758153 11.4291 0.758153 15.5C0.758153 19.5708 4.05823 22.8709 8.12909 22.8709Z" stroke="#171717" stroke-width="1.5" stroke-miterlimit="10" stroke-linecap="round" stroke-linejoin="round"/>
</svg>
